<svg xmlns="http://www.w3.org/2000/svg" viewBox="0 0 809 809">
  <defs>
    <style>
      .cls-1 {
        fill: #5bc4ba;
      }

      .cls-2 {
        fill: #fff;
      }
    </style>
  </defs>
  <title>Ресурс 11</title>
  <g id="Слой_2" data-name="Слой 2">
    <g id="Слой_1-2" data-name="Слой 1">
      <circle class="cls-1" cx="404.5" cy="404.5" r="404.5"/>
      <path class="cls-2" d="M537.85893,404.90545q-.00007,123.49452-.018,246.989a89.10606,89.10606,0,0,1-.461,11.45886c-1.51394,11.5368-7.86647,23.0564-20.18163,22.9458-41.04593-.36853-82.09471-.13892-123.1424-.13879-33.25228.00012-66.50921-.4411-99.75462.2124-13.67667.2688-23.176-14.00677-23.16082-31.49915q.21723-250.23843.10251-500.47752c.00236-15.33641,6.0978-27.18852,15.69624-30.68285a18.98322,18.98322,0,0,1,6.497-.89151c74.66539-.04323,149.33116.133,223.99575-.198,12.83952-.05692,19.38306,13.86511,20.192,25.30556.22224,3.14348.22549,6.324.22594,9.48761Q537.867,281.16118,537.85893,404.90545Z"/>
      <circle class="cls-1" cx="404.5" cy="655.67734" r="15.47767"/>
      <rect class="cls-1" x="359.82608" y="144.82907" width="89.34784" height="10.72174" rx="5.36086" ry="5.36086"/>
      <rect class="cls-1" x="290.1943" y="181.38198" width="228.6114" height="446.23603" rx="12.85976" ry="12.85976"/>
    </g>
  </g>
</svg>
