<svg xmlns="http://www.w3.org/2000/svg" viewBox="0 0 809 809">
  <defs>
    <style>
      .cls-1 {
        fill: #5bc4ba;
      }

      .cls-2 {
        fill: #fff;
      }
    </style>
  </defs>
  <title>Ресурс 9</title>
  <g id="Слой_2" data-name="Слой 2">
    <g id="Слой_1-2" data-name="Слой 1">
      <circle class="cls-1" cx="404.5" cy="404.5" r="404.5"/>
      <path class="cls-2" d="M233.64549,683.02865c4.038-8.79118,7.68139-16.75167,11.34795-24.70142q46.20672-100.18345,92.48794-200.33236c1.59951-3.4552.86821-4.80893-2.35421-6.64219-43.02389-24.4771-68.43485-61.07206-75.73831-110.21532a281.08835,281.08835,0,0,1-2.29237-60.88408c2.84769-41.13946,15.489-78.5758,44.15012-109.29238,19.30638-20.691,43.23834-33.80026,70.42953-41.17833a195.55791,195.55791,0,0,1,52.24252-6.49409q41.14813.15229,82.29658-.06579c4.09634-.02726,5.05024,1.261,5.04855,5.14673q-.12176,274.61316.02908,549.22634c.0028,4.4803-1.348,5.573-5.64049,5.51411q-24.901-.342-49.80885.0129c-4.30469.06245-5.24912-1.38635-5.24267-5.44467.108-67.859.02877-135.71829.154-203.57728.008-4.33023-1.08293-5.76174-5.53341-5.67132-13.56634.27566-27.14241.20327-40.71261.06425-3.318-.034-5.0834.91287-6.5257,4.143q-29.90168,66.96579-60.10341,133.79759Q321.74,642.34291,305.75909,678.32245c-1.44944,3.27665-3.13041,4.83841-7.00569,4.79885-20.06689-.20465-40.137-.0936-60.206-.09265C237.16759,683.02871,235.78776,683.02865,233.64549,683.02865Zm217.03908-386.85h-.01972q0-58.91249.06134-117.82478c.00947-3.75437-.77384-5.40047-5.01545-5.25959-10.09694.33534-20.22233-.15223-30.31684.21945-34.90288,1.28509-61.12066,16.90355-77.61893,47.97534-9.4967,17.88549-13.966,37.191-15.3169,57.28372-1.75281,26.06969-1.32041,51.99129,6.7699,77.16239,11.18421,34.79688,33.57716,57.22061,70.98327,61.38913,14.71286,1.63957,29.66859,1.14218,44.51637,1.50705,5.94206.146,5.955.00994,5.95544-5.92726Q450.68756,354.44142,450.68457,296.1787Z"/>
    </g>
  </g>
</svg>
