<svg id="Слой_1" data-name="Слой 1" xmlns="http://www.w3.org/2000/svg" viewBox="0 0 900 900">
  <defs>
    <style>
      .cls-1 {
        fill: #ed9d4a;
        stroke: #000;
      }

      .cls-1, .cls-2, .cls-3, .cls-4 {
        stroke-miterlimit: 10;
        stroke-width: 11px;
      }

      .cls-2 {
        fill: #684821;
      }

      .cls-2, .cls-3 {
        stroke: #0a0a0a;
      }

      .cls-3 {
        fill: #9c6;
      }

      .cls-4, .cls-5 {
        fill: #f4d552;
      }

      .cls-4 {
        stroke: #070707;
      }
    </style>
  </defs>
  <title>Монтажная область 5</title>
  <path class="cls-1" d="M764.38635,370.85065c.00381-.47128.04841-.93522.04841-1.40732,0-128.59048-141.13654-204.48756-316.96148-204.48756-175.053,0-316.96175,75.89709-316.96175,204.48756,0,.4721.0446.936.04841,1.40732Z"/>
  <rect class="cls-2" x="87.09146" y="370.85065" width="725.81708" height="79.83941" rx="36.17005" ry="36.17005"/>
  <rect class="cls-3" x="87.09146" y="450.69005" width="725.81708" height="79.83941" rx="36.17005" ry="36.17005"/>
  <path class="cls-1" d="M764.43475,610.08925v77.1702c0,26.39081-15.74032,47.78479-35.157,47.78479H165.66852c-19.41667,0-35.157-21.394-35.157-47.78479v-77.1702"/>
  <rect class="cls-2" x="87.09146" y="530.24984" width="725.81708" height="79.83941" rx="36.17005" ry="36.17005"/>
  <path class="cls-4" d="M558.76332,484.93142a22.99778,22.99778,0,0,1,20.01476-34.43985l42.41353.1207,42.41353.1207a22.99778,22.99778,0,0,1,19.81841,34.55321L662.11225,521.957l-21.3113,36.67084a22.99778,22.99778,0,0,1-39.83317-.11336L579.86555,521.723Z"/>
  <path class="cls-5" d="M264.739,246.063c-11.34317,4.84332-17.53514,15.80388-13.83014,24.48108s15.904,11.78519,27.24713,6.94187a27.29393,27.29393,0,0,0,10.29045-7.53169l.0134.029,11.683-13.131,10.15036-11.40836a.987.987,0,0,0-.79414-1.71828l-15.40965.029-17.73647.03334.001.00228A27.54532,27.54532,0,0,0,264.739,246.063Z"/>
  <path class="cls-5" d="M357.61389,295.94835c-7.16882,10.62529-6.76613,23.43148.89945,28.60341s19.69125.75109,26.86008-9.87421a29.77265,29.77265,0,0,0,4.8751-12.28257l.02647.01666,3.158-17.803,2.74371-15.46749c.18478-1.04164-.68478-1.58968-1.56957-.98926l-13.1383,8.91608-15.12216,10.26237.00207.00132A30.09249,30.09249,0,0,0,357.61389,295.94835Z"/>
  <path class="cls-5" d="M482.61546,321.58142c4.22186,12.10227,14.72235,19.444,23.45348,16.39812s12.38663-15.32582,8.16478-27.42809a29.77265,29.77265,0,0,0-6.92232-11.25654l.02919-.01123L494.968,286.09888,484.2185,274.64375a.953.953,0,0,0-1.7319.66538l-.72009,15.86168-.82884,18.25675.0023-.00087A30.09249,30.09249,0,0,0,482.61546,321.58142Z"/>
  <path class="cls-5" d="M614.03916,297.10339c8.58575,9.517,21.1119,12.21075,27.97793,6.01659s5.47191-18.9306-3.11384-28.44763a29.77265,29.77265,0,0,0-10.74671-7.69l.02255-.02167-16.51822-7.35313L597.30962,253.219c-.96646-.43024-1.70782.28172-1.33819,1.28508l5.489,14.89906,6.31783,17.14879.00178-.00169A30.09249,30.09249,0,0,0,614.03916,297.10339Z"/>
</svg>
