<svg xmlns="http://www.w3.org/2000/svg" viewBox="0 0 814.90199 829.99704">
  <defs>
    <style>
      .cls-1 {
        fill: #5bc4ba;
      }

      .cls-2 {
        fill: #f5fafd;
      }
    </style>
  </defs>
  <title>Ресурс 8</title>
  <g id="Слой_2" data-name="Слой 2">
    <g id="Слой_1-2" data-name="Слой 1">
      <g>
        <path class="cls-1" d="M66.54033,829.997c21.83608-9.7508,42.22978-18.79548,62.57112-27.95648,25.66842-11.56018,51.36087-23.072,76.87379-34.96743,4.34827-2.02747,7.51164-1.92889,11.82492-.02806,20.2103,8.90651,40.28149,18.30724,61.03871,25.75893,51.38067,18.44549,104.64551,23.46679,158.89684,19.874a391.25554,391.25554,0,0,0,110.12283-23.43431,402.51015,402.51015,0,0,0,66.11578-31.54532c23.30853-13.82425,45.54044-29.10653,65.02231-47.88357,16.44081-15.84595,33.07885-31.84624,47.07418-49.77322,15.09518-19.33565,28.13012-40.46436,40.43416-61.75276,20.089-34.75781,32.52323-72.563,40.42412-111.85667a399.72834,399.72834,0,0,0,3.68072-137.74128,406.00541,406.00541,0,0,0-65.17629-169.25431A399.30374,399.30374,0,0,0,673.297,98.32715,418.83315,418.83315,0,0,0,610.16029,53.677,405.99636,405.99636,0,0,0,546.3786,23.89587C493.68,4.60965,439.2-2.19855,383.17686.60451A400.02582,400.02582,0,0,0,181.85133,68.03757a412.74926,412.74926,0,0,0-74.172,63.40718,422.59979,422.59979,0,0,0-45.42654,59.70769,391.01041,391.01041,0,0,0-43.74783,94.92885c-15.794,50.95337-21.7997,103.233-16.77124,156.43466,3.29513,34.8629,10.41427,68.9829,22.47458,102.045A401.57831,401.57831,0,0,0,74.75659,641.3254c7.441,10.39766,15.79907,20.14091,23.78339,30.147,2.693,3.37489,4.87116,6.432,3.64212,11.45883-8.1624,33.38511-15.92525,66.86758-23.94118,100.28887C74.62868,798.28092,70.73334,813.27382,66.54033,829.997Z"/>
        <path class="cls-2" d="M285.15974,344.0219c10.8703,15.059,19.64,28.62912,29.84328,41.01863,16.39014,19.902,32.9119,39.81775,50.87448,58.27111a261.78772,261.78772,0,0,0,75.65914,54.57818c14.15626,6.7086,14.06581,6.85258,25.46648-3.63923,11.99336-11.03732,23.98726-22.076,36.15349-32.92051a6.62644,6.62644,0,0,1,5.48643-1.13973c26.70724,8.92268,53.47014,17.70828,79.93675,27.30755,11.26552,4.08592,21.72415,10.342,32.82094,14.95946,21.01753,8.74544,24.8573,36.78012,18.66557,52.39961-6.928,17.47727-20.37338,29.49364-33.32542,42.02317-10.5733,10.22836-22.52307,18.48067-36.3751,23.55461-19.0254,6.96886-38.70762,5.82293-58.20028,3.04248-31.26235-4.45942-60.20649-16.0708-88.64287-29.453A472.42578,472.42578,0,0,1,279.521,488.10323a435.6057,435.6057,0,0,1-59.79716-81.43965c-23.51576-41.16927-39.88282-85.02084-45.86162-132.3355a237.915,237.915,0,0,1-1.70345-25.50978c-.27972-15.556,6.94-27.96688,17.41965-38.76221,18.50722-19.06469,39.12024-35.39126,62.57214-48.04425,13.87692-7.487,16.832-7.49469,25.93229,5.23713a360.8235,360.8235,0,0,1,21.9849,35.63054c10.87657,19.71191,21.61457,39.53793,31.39083,59.80785,8.49017,17.60316,6.52424,33.04836-8.28721,45.728C310.20393,319.51638,298.192,331.73363,285.15974,344.0219Z"/>
      </g>
    </g>
  </g>
</svg>
