<svg width="61" height="72" viewBox="0 0 61 72" fill="none" xmlns="http://www.w3.org/2000/svg">
<path d="M60.3 44.6983C59.88 43.7046 59.2541 42.8113 58.4636 42.0771C57.2798 40.9638 55.9401 40.029 54.4867 39.302C52.7934 38.4361 51.0226 37.7308 49.1976 37.1957C48.7095 37.0477 48.7124 37.0476 48.8242 36.5622C49.2486 34.7651 49.5083 32.9331 49.5999 31.0888C49.6773 29.7042 49.5952 28.3153 49.3553 26.9494C49.1724 25.8232 48.7888 24.7389 48.2225 23.7483C47.6435 22.7028 46.7043 21.9033 45.5798 21.4986C44.6783 21.2022 43.7193 21.1249 42.782 21.273C41.8461 21.4089 40.9313 21.663 40.0594 22.0292C38.3572 22.7543 36.7558 23.6962 35.2949 24.8315C34.2863 25.6003 33.321 26.424 32.4032 27.2991C32.1783 27.5107 32.1802 27.4555 31.9951 27.2833C31.0397 26.3855 30.0324 25.5444 28.9786 24.7644C27.3972 23.555 25.6459 22.5856 23.7813 21.8876C22.528 21.3938 21.1777 21.1956 19.8353 21.3083C19.0738 21.3826 18.34 21.633 17.692 22.0398C16.758 22.6692 16.0391 23.5693 15.6317 24.6194C15.0589 26.0476 14.7534 27.5689 14.7303 29.1076C14.693 30.1382 14.7282 31.1701 14.8356 32.1957C14.9436 33.2847 15.1085 34.3673 15.3298 35.439C15.4248 35.9013 15.5259 36.3628 15.6419 36.8203C15.6818 36.9777 15.6408 37.0401 15.494 37.0669C15.4315 37.0823 15.3698 37.101 15.3094 37.1232C14.4149 37.3926 13.5265 37.68 12.6544 38.016C10.797 38.6995 9.03694 39.6228 7.41895 40.7625C6.35672 41.4992 5.43465 42.4197 4.69623 43.4808C4.12359 44.2937 3.78264 45.2469 3.70984 46.2386C3.6677 47.2546 3.9254 48.2605 4.45084 49.1311C5.06022 50.1598 5.84923 51.0707 6.78037 51.8207C8.0624 52.8702 9.47296 53.7521 10.978 54.4449C12.4058 55.1196 13.884 55.6819 15.3992 56.1268C15.6482 56.201 15.6453 56.204 15.5898 56.4584C15.4573 57.0663 15.3176 57.6728 15.1972 58.2832C14.9564 59.4829 14.8032 60.6985 14.7387 61.9204C14.6662 63.0788 14.699 64.2414 14.8368 65.3939C14.9566 66.4509 15.2245 67.4859 15.6327 68.4682C15.9723 69.2969 16.4912 70.04 17.1523 70.6441C18.1459 71.4892 19.4242 71.9239 20.727 71.8597C21.393 71.8483 22.0554 71.7597 22.7009 71.5955C23.9926 71.2651 25.2353 70.7666 26.3973 70.113C28.2767 69.066 30.023 67.7963 31.5984 66.3312C31.8271 66.1227 32.0558 65.9143 32.2889 65.7019C32.3608 65.7651 32.4187 65.8125 32.4729 65.8641C33.2439 66.5978 34.0434 67.2987 34.8808 67.9557C36.3029 69.1053 37.8616 70.0748 39.5215 70.842C40.9064 71.5192 42.4273 71.8719 43.9688 71.8733C44.8214 71.8617 45.6574 71.6358 46.3997 71.2163C47.29 70.6819 48.0071 69.9018 48.4646 68.9696C49.2092 67.4628 49.6212 65.8135 49.6726 64.1335C49.7245 63.4489 49.7353 62.7617 49.705 62.0758C49.6624 61.325 49.6241 60.5738 49.5324 59.8287C49.3973 58.6884 49.1919 57.5575 48.9173 56.4426C48.8242 56.0721 48.8265 56.0672 49.1842 55.9601C50.0694 55.6951 50.9399 55.3888 51.7959 55.0411C53.8176 54.272 55.715 53.2095 57.4272 51.8878C58.4403 51.1185 59.2942 50.1598 59.9416 49.0648C60.3396 48.4161 60.5795 47.6829 60.6417 46.9244C60.704 46.1658 60.5869 45.4033 60.3 44.6983ZM34.0667 29.0868C35.7248 27.4603 37.5926 26.0622 39.6204 24.9295C40.5117 24.4313 41.4652 24.0536 42.456 23.8063C43.0487 23.6508 43.6654 23.6081 44.274 23.6805C44.6528 23.7339 45.0143 23.8741 45.3302 24.09C45.6461 24.3059 45.9079 24.5919 46.0953 24.9255C46.5416 25.6869 46.8365 26.5272 46.9638 27.4005C47.1145 28.231 47.1849 29.0741 47.1742 29.9181C47.1771 31.4896 47.0303 33.0577 46.7357 34.6014C46.635 35.1391 46.5305 35.6754 46.4005 36.2066C46.3401 36.4539 46.3379 36.454 46.0803 36.3999C45.5346 36.2854 44.9909 36.1615 44.4433 36.0572C43.2742 35.8344 42.0998 35.6429 40.9179 35.5003C40.2581 35.4208 39.5983 35.3407 38.9373 35.2721C38.8637 35.2663 38.7924 35.2431 38.7295 35.2043C38.6666 35.1656 38.6138 35.1124 38.5755 35.0492C37.5136 33.5502 36.3955 32.0942 35.2016 30.6977C34.8318 30.2652 34.4463 29.8463 34.0691 29.4202C33.9124 29.2432 33.9087 29.2366 34.0667 29.0868ZM20.5226 49.397C21.5896 51.4429 22.7086 53.371 23.9362 55.2837C22.1706 55.0966 20.416 54.8165 18.6798 54.4447C19.2065 52.7314 19.8216 51.0466 20.5226 49.397ZM20.4262 43.4809C19.8183 42.0133 19.2599 40.5275 18.783 39.0118C18.7075 38.7718 18.7081 38.7659 18.9706 38.7074C19.8182 38.5189 20.6707 38.3561 21.5282 38.2189C22.2056 38.1109 22.8846 38.0124 23.5631 37.9108C23.6588 37.8891 23.7584 37.8914 23.8531 37.9176C23.8001 38.0069 23.764 38.0715 23.7244 38.1338C22.589 39.9172 21.544 41.7532 20.5685 43.6148C20.4531 43.6135 20.4482 43.5341 20.4262 43.4809H20.4262ZM21.9369 46.8406C21.8874 46.7546 21.8614 46.6571 21.8615 46.5579C21.8615 46.4587 21.8876 46.3612 21.9371 46.2752C23.1898 43.7067 24.5989 41.2174 26.1565 38.8215C26.3852 38.4705 26.621 38.1242 26.8464 37.7712C26.8825 37.7065 26.9349 37.6523 26.9983 37.614C27.0617 37.5757 27.1341 37.5546 27.2081 37.5528C28.0324 37.49 28.8581 37.4633 29.6833 37.422C31.1221 37.3499 32.5615 37.3568 33.9996 37.3947C35.0499 37.4223 36.1014 37.4571 37.1495 37.5521C37.2281 37.5559 37.3044 37.5796 37.3715 37.6208C37.4385 37.662 37.494 37.7194 37.5329 37.7878C38.5369 39.2879 39.4861 40.822 40.3805 42.3899C41.1041 43.6588 41.7945 44.9456 42.4515 46.2504C42.5 46.3305 42.5264 46.422 42.5279 46.5157C42.5295 46.6093 42.5061 46.7017 42.4602 46.7833C41.0124 49.6988 39.3901 52.5244 37.6024 55.2447C37.5459 55.3453 37.4633 55.4288 37.3633 55.4862C37.2632 55.5437 37.1496 55.5731 37.0342 55.5713C35.3934 55.6608 33.7525 55.7277 32.1089 55.684C31.1955 55.684 30.282 55.699 29.3691 55.6792C28.6509 55.6637 27.9339 55.5982 27.2157 55.5711C27.1414 55.5664 27.0696 55.5419 27.008 55.5001C26.9463 55.4583 26.897 55.4007 26.8651 55.3334C26.1383 54.2558 25.4396 53.1602 24.769 52.0467C23.7521 50.351 22.8182 48.6104 21.937 46.8406H21.9369ZM43.8836 49.3143C44.6119 50.9507 45.2534 52.6244 45.8057 54.3282C44.0478 54.7325 42.2687 55.0387 40.4768 55.2453C41.6936 53.2967 42.8167 51.3668 43.8836 49.3143H43.8836ZM43.8623 43.714C42.8003 41.7065 41.7044 39.8031 40.5303 37.9584C40.5465 37.932 40.5712 37.912 40.6004 37.9018C40.6296 37.8915 40.6614 37.8916 40.6905 37.9021C42.2951 38.118 43.8896 38.3921 45.4717 38.737C45.688 38.7842 45.6907 38.7876 45.618 39.0201C45.2371 40.2391 44.7944 41.4357 44.3168 42.6197C44.1773 42.9656 44.0309 43.3087 43.8623 43.714H43.8623ZM32.2016 30.9872C32.4658 31.2303 32.7105 31.4937 32.9336 31.7749C33.7777 32.7339 34.5879 33.7213 35.3528 34.7452C35.4072 34.818 35.5263 34.8859 35.4723 34.9841C35.4188 35.0814 35.3006 35.0161 35.2078 35.0133C34.7573 34.9992 34.3065 34.9912 33.8558 34.9814C33.1802 34.9666 32.5031 34.9169 31.8294 34.9459C30.8863 34.9864 29.9409 34.9429 28.9997 35.0326C28.9736 35.0387 28.9462 35.0359 28.9218 35.0246C28.8975 35.0134 28.8776 34.9942 28.8653 34.9704C29.9071 33.5853 31.0207 32.2558 32.2016 30.9872ZM17.6306 26.2143C17.787 25.6774 18.0322 25.1706 18.3562 24.7148C18.581 24.4048 18.8754 24.1519 19.2157 23.9764C19.5561 23.8008 19.9328 23.7075 20.3157 23.704C21.3065 23.685 22.2899 23.8775 23.2004 24.2687C24.8155 24.9216 26.3329 25.7939 27.7097 26.8613C28.6914 27.5914 29.6238 28.3854 30.5011 29.2381C30.0517 29.7494 29.6188 30.2394 29.1889 30.7319C28.0495 32.0326 26.9816 33.3944 25.9901 34.8111C25.8905 34.9643 25.7547 35.0905 25.5945 35.1785C25.4344 35.2665 25.255 35.3137 25.0723 35.3157C24.2822 35.3844 23.4936 35.4796 22.708 35.5895C21.6039 35.7439 20.5024 35.9182 19.4104 36.1464C19.0432 36.2231 18.676 36.3005 18.309 36.3784C18.0587 36.4316 18.0549 36.4333 17.9898 36.1714C17.7645 35.2657 17.5794 34.3512 17.4416 33.4285C17.2532 32.2304 17.1587 31.0193 17.159 29.8064C17.1392 28.5924 17.298 27.3821 17.6306 26.2143H17.6306ZM16.0509 53.7693C13.6873 53.112 11.4407 52.0901 9.39223 50.7403C8.4247 50.1139 7.57398 49.3234 6.87838 48.4043C6.53652 47.9598 6.29838 47.4445 6.18138 46.8961C6.15716 46.7695 6.14433 46.6409 6.14305 46.512C6.16641 45.8852 6.38009 45.2804 6.75566 44.7781C7.26019 44.0665 7.87855 43.443 8.58586 42.9325C10.0618 41.8524 11.68 40.9817 13.3945 40.345C14.2835 39.9947 15.19 39.6905 16.1104 39.4336C16.3587 39.3646 16.3639 39.3665 16.4404 39.6127C17.1576 41.8978 18.0229 44.1337 19.0307 46.3064C19.0702 46.3928 19.0884 46.4875 19.0836 46.5825C19.0789 46.6775 19.0513 46.7699 19.0033 46.852C18.4586 48.0439 17.9535 49.2524 17.4877 50.4775C17.0984 51.5015 16.74 52.5359 16.405 53.5788C16.3202 53.8427 16.3153 53.8482 16.0508 53.7693H16.0509ZM30.4061 64.105C28.6197 65.8635 26.5637 67.3253 24.3161 68.4352C23.4391 68.8682 22.5042 69.1726 21.5404 69.3389C21.2442 69.3855 20.9441 69.4071 20.6458 69.4401C20.0927 69.4674 19.5444 69.326 19.0733 69.035C18.6023 68.7439 18.2306 68.3167 18.0076 67.8099C17.6578 67.0723 17.4202 66.2867 17.3028 65.4789C17.1802 64.7266 17.125 63.9649 17.1378 63.2029C17.1416 62.2481 17.2079 61.2947 17.3361 60.3486C17.4866 59.2532 17.6886 58.1683 17.9423 57.0939C17.9522 57.0522 17.9591 57.0098 17.9674 56.9677C17.9954 56.8237 18.0723 56.7788 18.2209 56.8123C18.6495 56.909 19.0794 57.0017 19.5115 57.0817C20.5657 57.2768 21.6248 57.4412 22.6887 57.5749C23.6357 57.6947 24.5849 57.7918 25.5354 57.8754C25.6036 57.8837 25.6688 57.9089 25.7249 57.9487C25.7811 57.9884 25.8264 58.0415 25.8569 58.1032C26.3535 58.8044 26.8709 59.4897 27.3981 60.1679C28.354 61.3978 29.3581 62.5868 30.4105 63.735C30.5854 63.9258 30.5907 63.9297 30.4061 64.105H30.4061ZM32.4001 62.0522C32.311 62.1701 32.2308 62.1508 32.1417 62.0505C31.928 61.8097 31.7075 61.575 31.4956 61.3327C30.6476 60.3632 29.8268 59.3713 29.0444 58.348C28.9925 58.2801 28.9436 58.21 28.8419 58.07C31.1244 58.1774 33.3399 58.1665 35.5485 58.0674C35.5858 58.183 35.5082 58.2273 35.4669 58.2834C34.5434 59.5369 33.5687 60.749 32.5302 61.9093C32.4871 61.9574 32.4387 62.001 32.4001 62.0522H32.4001ZM46.7059 66.9106C46.5751 67.2971 46.4067 67.6698 46.2031 68.0234C45.9609 68.4892 45.5858 68.8727 45.1254 69.1251C44.665 69.3775 44.14 69.4875 43.617 69.4412C42.6939 69.3875 41.7877 69.1702 40.9406 68.7995C39.4091 68.1424 37.971 67.2859 36.6637 66.2522C35.7787 65.5707 34.9313 64.8417 34.1252 64.0684C33.9999 63.9493 33.9965 63.8846 34.1096 63.761C35.4641 62.2636 36.7319 60.6899 37.9066 59.0476C38.1459 58.7172 38.3816 58.384 38.6104 58.0463C38.6532 57.9792 38.7121 57.9239 38.7817 57.8854C38.8513 57.8468 38.9294 57.8262 39.009 57.8254C40.356 57.7158 41.6951 57.5429 43.03 57.3296C44.1105 57.157 45.1848 56.9538 46.253 56.7198C46.466 56.6734 46.4705 56.676 46.5234 56.8979C46.7843 57.9712 46.9804 59.0593 47.1106 60.1561C47.212 61.0414 47.2731 61.9285 47.2938 62.8173C47.3088 64.2038 47.1105 65.5843 46.7058 66.9106H46.7059ZM57.9631 47.5891C57.5597 48.4007 56.9837 49.1142 56.2755 49.6798C54.9254 50.7996 53.4174 51.7139 51.8002 52.3931C50.7104 52.8765 49.5915 53.2917 48.4502 53.6362C48.1543 53.7265 48.1543 53.7257 48.0542 53.4208C47.3144 51.1767 46.4331 48.9818 45.4154 46.8493C45.3578 46.7434 45.3276 46.6246 45.3276 46.504C45.3276 46.3834 45.3577 46.2646 45.4153 46.1586C46.3849 44.0749 47.2246 41.9333 47.9297 39.7459C47.9396 39.7152 47.9457 39.6833 47.9562 39.6529C48.0408 39.4069 48.0531 39.3941 48.2984 39.4701C48.8009 39.6257 49.3038 39.7809 49.8008 39.9526C51.452 40.506 53.0385 41.2364 54.5326 42.131C55.5188 42.7054 56.4123 43.4258 57.1827 44.2677C57.6375 44.7438 57.9696 45.3234 58.1504 45.9564C58.1924 46.1502 58.2112 46.3482 58.2065 46.5464C58.2092 46.9084 58.1257 47.2658 57.963 47.5891H57.9631Z" fill="#53BFDC"/>
<path d="M32.1538 51.5807C30.8048 51.574 29.5135 51.0321 28.5639 50.0738C27.6143 49.1156 27.084 47.8195 27.0896 46.4704C27.0952 45.1214 27.6361 43.8297 28.5936 42.8793C29.5512 41.9289 30.8468 41.3977 32.1959 41.4022C32.8651 41.4035 33.5276 41.5368 34.1452 41.7945C34.7629 42.0522 35.3236 42.4292 35.7954 42.9038C36.2672 43.3785 36.6407 43.9416 36.8946 44.5608C37.1485 45.18 37.2777 45.8432 37.275 46.5125C37.2722 47.1817 37.1375 47.8439 36.8785 48.461C36.6195 49.0781 36.2413 49.638 35.7656 50.1088C35.29 50.5796 34.7261 50.9519 34.1063 51.2045C33.4866 51.4571 32.8231 51.5848 32.1538 51.5807Z" fill="#53BFDC"/>
<path d="M51.2164 5.54049C51.5351 5.8698 51.7748 6.26716 51.9175 6.7026L51.9333 6.75338C52.0177 7.03846 52.0045 7.34354 51.8958 7.62027C51.7872 7.897 51.5893 8.12953 51.3335 8.28103C51.0545 8.45512 50.7244 8.52881 50.3979 8.48989C50.0713 8.45098 49.7678 8.30181 49.5376 8.06704C49.4221 7.94125 49.3171 7.80618 49.2236 7.66323C48.9961 7.27776 48.6559 6.97137 48.2487 6.78537C47.8416 6.59936 47.3872 6.54266 46.9469 6.62301C46.48 6.67098 46.0366 6.85163 45.6691 7.14358C45.3016 7.43553 45.0253 7.82658 44.873 8.27053C44.7981 8.45705 44.7433 8.65166 44.6792 8.84249C44.6033 9.09006 44.5511 9.34427 44.5233 9.60171C44.3921 10.6272 44.5843 11.6681 45.0733 12.5791C45.2953 12.8914 45.5861 13.1486 45.9232 13.331C46.2603 13.5133 46.6347 13.6159 47.0176 13.6309C47.4006 13.6458 47.7819 13.5727 48.1321 13.4172C48.4824 13.2617 48.7923 13.0279 49.0381 12.7339C49.3349 12.3094 49.5968 11.8151 50.1569 11.6676C50.4217 11.569 50.7104 11.5535 50.9842 11.6234C51.258 11.6934 51.5039 11.8452 51.689 12.0588C51.8767 12.3013 51.9831 12.5969 51.993 12.9034C52.0028 13.2099 51.9156 13.5117 51.7439 13.7658C51.4411 14.3451 51.0076 14.8459 50.4778 15.2285C49.9479 15.6112 49.3362 15.8652 48.6911 15.9705C48.4203 16.0374 48.1463 16.0908 47.8737 16.1504C47.3576 16.2547 46.8258 16.255 46.3096 16.1511C45.6398 16.0159 44.9795 15.8369 44.3332 15.6152C43.6041 15.298 42.9643 14.8063 42.4703 14.1834C41.9763 13.5604 41.6433 12.8254 41.5005 12.0433C41.4565 11.8467 41.3906 11.6551 41.3348 11.4611C41.2304 10.7226 41.2299 9.97304 41.3334 9.23434C41.3979 8.84658 41.4886 8.46364 41.605 8.08816C41.8032 7.3192 42.1782 6.60707 42.7 6.00845C43.2218 5.40982 43.876 4.94118 44.6107 4.6398C45.5779 4.21576 46.6337 4.03364 47.6871 4.1091C48.7404 4.18455 49.7595 4.51533 50.6563 5.0729C50.8622 5.2042 51.0505 5.36135 51.2164 5.54049Z" fill="#53BFDC"/>
<path d="M55.2082 8.23319C55.2096 8.1997 55.2042 8.11868 55.2056 8.08512C55.2118 7.84373 55.1979 7.6022 55.1638 7.36314C55.1014 7.17388 55.0007 6.99951 54.8679 6.85087C54.7352 6.70223 54.5732 6.58254 54.3922 6.49919C53.5192 6.22564 53.3196 5.96695 53.4291 5.25108C53.5112 4.71408 53.787 4.49008 54.4809 4.3964C55.1881 4.30096 55.1808 4.30089 55.1905 3.58708C55.1649 3.0117 55.2016 2.43524 55.3 1.86778C55.3428 1.67047 55.4356 1.48753 55.5697 1.33659C55.7038 1.18565 55.8745 1.07181 56.0654 1.00608C56.4416 0.82724 56.87 0.790979 57.271 0.904092C57.672 1.01721 58.0183 1.27201 58.2456 1.62113C58.4124 2.34816 58.4698 3.09598 58.4158 3.83994C58.425 4.00994 58.3196 4.21735 58.5317 4.3444C58.8714 4.32328 59.2122 4.32753 59.5512 4.35722C59.7171 4.40055 59.8833 4.44259 60.0488 4.48747C60.1695 4.50243 60.2859 4.54245 60.3903 4.6049C60.4948 4.66735 60.5851 4.75083 60.6555 4.85014C60.7258 4.94944 60.7747 5.06236 60.799 5.18162C60.8233 5.30088 60.8225 5.42391 60.7966 5.54283C60.7761 6.06533 60.5356 6.31792 59.967 6.43821C59.5819 6.50632 59.19 6.52823 58.7996 6.50358C58.5279 6.4959 58.4061 6.57897 58.4075 6.87522C58.4168 8.86011 58.407 10.8451 58.4163 12.83C58.4188 13.3828 58.6235 13.5819 59.1786 13.6344C59.3804 13.6534 59.5854 13.6369 59.7874 13.6545C60.0071 13.6441 60.2239 13.7079 60.4029 13.8355C60.5819 13.9632 60.7128 14.1475 60.7744 14.3586C60.8444 14.6156 60.8332 14.8881 60.7423 15.1385C60.6514 15.389 60.4853 15.6052 60.2668 15.7576C59.9339 15.9635 59.5618 16.0976 59.1742 16.1516C58.7206 16.2539 58.2499 16.2544 57.7961 16.1532C57.4809 16.074 57.1566 16.0202 56.8524 15.9107C56.4492 15.7926 56.0887 15.5607 55.814 15.2428C55.5394 14.9249 55.3623 14.5345 55.3039 14.1184C55.2722 13.9199 55.2117 13.746 55.1901 13.5288C55.1856 13.3421 55.1768 13.2153 55.1767 13.1245C55.1757 11.5363 55.2011 10.1305 55.2017 8.54228C55.2018 8.46419 55.2082 8.35129 55.2082 8.23319Z" fill="#53BFDC"/>
<path d="M13.2894 13.0471C13.1594 12.2477 13.0953 11.439 13.0977 10.6292C13.111 10.1289 12.9538 9.63903 12.6518 9.23994C12.3499 8.84084 11.9213 8.55624 11.4363 8.43293C11.4165 8.39334 11.3947 8.35477 11.371 8.31739C11.3609 8.30624 11.3537 8.29269 11.3502 8.27802C11.3467 8.26336 11.347 8.24806 11.351 8.23353C11.3657 8.18745 11.3912 8.14555 11.4254 8.11133C11.9846 7.87789 12.4739 7.50383 12.8459 7.02546C13.1789 6.48279 13.4241 5.89087 13.5721 5.27161C13.6545 5.0354 13.6952 4.78666 13.6923 4.53651L13.6917 4.34101C13.6996 4.08786 13.6509 3.83613 13.5492 3.60419C13.4366 3.10535 13.2784 2.61793 13.0765 2.14808C12.9996 2.03144 12.9156 1.91968 12.8249 1.81342C12.4608 1.3659 12.0113 0.995309 11.5025 0.723334C10.9938 0.451359 10.4359 0.283445 9.86156 0.229315C7.37113 0.0266434 4.87076 -0.0259214 2.37401 0.0719058C1.95056 0.0536268 1.52872 0.134991 1.14244 0.309455C0.817395 0.48307 0.552212 0.750581 0.381484 1.07715C0.210755 1.40373 0.142409 1.77421 0.185355 2.1402C0.165765 3.4986 0.243153 4.85731 0.236193 6.21589C0.236193 6.36762 0.224963 6.50398 0.224963 6.59632C0.224233 9.21522 0.114852 11.7249 0.116442 14.3437C0.112372 14.4491 0.125587 14.5544 0.155562 14.6555C0.226759 15.035 0.415798 15.3825 0.695803 15.6484C0.975809 15.9144 1.33253 16.0853 1.71525 16.1369C1.98101 16.187 2.25473 16.175 2.51509 16.1019C2.77546 16.0289 3.01544 15.8966 3.21634 15.7156C3.41724 15.5346 3.57364 15.3096 3.67335 15.0582C3.77305 14.8069 3.81338 14.5359 3.79118 14.2664C3.78758 12.9252 3.78935 11.5841 3.79649 10.243C3.79749 10.0892 3.70349 9.89326 3.91276 9.78541C5.28892 9.87763 6.66557 9.84602 8.04228 9.80268C9.06853 9.99616 9.63573 10.7537 9.72069 12.044C9.68926 12.3538 9.75177 12.6223 9.75177 12.9693C9.76947 13.1693 9.79687 13.3689 9.80328 13.5693C9.73269 14.1365 9.86858 14.7102 10.1861 15.1856C10.5036 15.6609 10.9816 16.0061 11.5326 16.158C11.7955 16.257 12.0862 16.2521 12.3455 16.1443C12.4223 16.0938 12.5027 16.049 12.5859 16.0101C12.7743 15.9619 12.9503 15.8745 13.1027 15.7538C13.255 15.633 13.3803 15.4816 13.4703 15.3093C13.5603 15.137 13.6131 14.9476 13.6251 14.7536C13.6372 14.5596 13.6083 14.3651 13.5403 14.183C13.4479 13.8065 13.3733 13.4257 13.2894 13.0471ZM8.60527 6.87147H4.18705C4.0541 6.87009 3.92158 6.85617 3.79124 6.8299V2.35456C3.92157 2.32826 4.0541 2.31434 4.18705 2.31299H8.60527C9.19661 2.3327 9.75715 2.58149 10.1685 3.00678C10.5799 3.43207 10.8098 4.00055 10.8098 4.59223C10.8098 5.18391 10.5799 5.75245 10.1685 6.17774C9.75715 6.60303 9.19661 6.85176 8.60527 6.87147H8.60527Z" fill="#53BFDC"/>
<path d="M27.0198 8.66088L27.0228 8.66558C26.9991 8.53615 26.9689 8.40795 26.9323 8.28155C26.7622 7.67851 26.5111 7.1013 26.186 6.56567C25.5708 5.68936 24.7153 5.00968 23.7225 4.60858C22.2177 4.02437 20.5584 3.97174 19.0195 4.45941C18.4859 4.63513 17.9813 4.88908 17.5222 5.21295C17.2493 5.38577 17.0052 5.60047 16.799 5.84918C16.4794 6.20616 16.1965 6.59445 15.9548 7.00817C15.6191 7.7511 15.3707 8.53049 15.2147 9.33068C15.1156 9.9742 15.1163 10.6292 15.217 11.2725C15.2732 11.4656 15.3384 11.6567 15.3842 11.8523C15.5411 12.6106 15.8648 13.3246 16.3318 13.9423C16.7987 14.5601 17.3973 15.0662 18.084 15.424C18.847 15.7643 19.6493 16.008 20.4726 16.1497C21.0209 16.2554 21.5844 16.2552 22.1326 16.1489C22.646 16.0284 23.1691 15.9389 23.6707 15.7811C24.1741 15.682 24.6528 15.4841 25.0792 15.199C25.5057 14.9139 25.8714 14.5472 26.1554 14.1201C26.2661 13.9493 26.336 13.7553 26.3598 13.5532C26.3835 13.3511 26.3604 13.1463 26.2923 12.9545C26.2242 12.7628 26.1129 12.5892 25.9671 12.4474C25.8212 12.3055 25.6446 12.1991 25.451 12.1364C25.1582 12.0481 24.8452 12.0527 24.5552 12.1499C24.2653 12.247 24.0126 12.4319 23.8321 12.6788C23.5078 12.9933 23.1243 13.2402 22.7038 13.4053C22.2832 13.5703 21.8341 13.6501 21.3825 13.6401C21.0049 13.6705 20.6251 13.6226 20.2668 13.4994C19.9086 13.3763 19.5797 13.1805 19.3006 12.9243C19.0215 12.6682 18.7983 12.3571 18.645 12.0107C18.4916 11.6643 18.4115 11.2901 18.4095 10.9112C18.5829 10.7261 18.8105 10.7728 19.0242 10.7726C21.3885 10.7709 23.7532 10.7706 26.1182 10.7715C26.3369 10.7575 26.5445 10.67 26.7074 10.5233C26.8702 10.3766 26.9789 10.1794 27.0157 9.96331L27.0348 9.69164C27.1054 9.35111 27.1002 8.99922 27.0198 8.66088ZM18.5541 8.97589C18.6191 8.28597 18.9392 7.64514 19.4517 7.1787C19.9642 6.71227 20.6323 6.45379 21.3252 6.45379C22.0182 6.45379 22.6863 6.71227 23.1988 7.1787C23.7113 7.64514 24.0314 8.28597 24.0964 8.97589H18.5541Z" fill="#53BFDC"/>
<path d="M39.7954 14.4538C39.7375 14.2777 39.6893 14.0985 39.651 13.9171C39.6475 13.7034 39.6327 13.4901 39.6067 13.2779C39.559 13.0655 39.5385 12.848 39.5455 12.6304C39.5429 10.9758 39.54 9.32113 39.5452 7.66653C39.5715 6.9953 39.406 6.33047 39.0683 5.74979C38.5861 5.17805 37.9521 4.75437 37.2393 4.52768C35.6212 4.03084 33.8992 3.97843 32.2539 4.37595C31.2011 4.56617 30.2605 5.15073 29.6238 6.01047C29.4445 6.21764 29.3294 6.47255 29.2925 6.74405C29.2557 7.01554 29.2987 7.29188 29.4163 7.53934C29.5365 7.79073 29.7374 7.99461 29.9871 8.11838C30.2367 8.24215 30.5206 8.27867 30.7935 8.22214C30.8566 8.21973 30.9194 8.21189 30.9811 8.1987C31.1651 8.1591 31.3402 8.08621 31.4979 7.98361C31.7075 7.84628 31.817 7.80618 32.074 7.62521C32.4678 7.23012 32.9585 6.9456 33.497 6.80014C34.0356 6.65468 34.6029 6.65339 35.142 6.79648C35.4049 6.84572 35.6476 6.9706 35.8405 7.15579C35.9616 7.26763 36.0488 7.4113 36.0921 7.57034C36.1355 7.72939 36.1332 7.8974 36.0856 8.05521C36.052 8.20875 35.973 8.34865 35.8589 8.45669C35.7447 8.56474 35.6007 8.63595 35.4456 8.66104C35.1276 8.7369 34.8056 8.79502 34.4812 8.83511C34.2553 8.88644 34.17 8.91351 33.7946 8.98514C33.3164 9.0546 33.228 9.09452 32.7257 9.15738C32.5302 9.19538 32.4026 9.25431 32.109 9.32339C31.4718 9.44966 30.8498 9.643 30.2534 9.90018C29.8154 10.1544 29.4277 10.4867 29.1096 10.8807C28.9015 11.2581 28.7217 11.6504 28.5717 12.0544C28.467 12.5409 28.4651 13.0439 28.5661 13.5312C28.7913 14.2931 29.2579 14.9612 29.8957 15.4348C30.8287 15.9749 31.9057 16.2134 32.9794 16.1176C34.0531 16.0219 35.071 15.5967 35.8937 14.9001C36.0906 14.7358 36.2326 14.4935 36.5499 14.4051C36.55 14.8122 36.6889 15.2073 36.9436 15.5249C37.1983 15.8426 37.5537 16.064 37.9511 16.1526C38.2143 16.254 38.5057 16.2542 38.7691 16.1531C38.8479 16.124 38.9281 16.0989 39.0094 16.078C39.1713 16.0283 39.3211 15.9457 39.4496 15.8354C39.5781 15.7252 39.6825 15.5896 39.7563 15.4372C39.83 15.2847 39.8716 15.1188 39.8783 14.9496C39.8851 14.7804 39.8568 14.6116 39.7954 14.4538ZM32.8128 13.714C31.8015 13.7948 31.3894 13.247 31.3894 12.3718C31.3894 11.4966 31.8283 11.1046 32.8128 10.9236C34.0025 10.689 35.159 10.31 36.2568 9.7952C36.2568 9.7952 37.2036 13.3629 32.8128 13.714Z" fill="#53BFDC"/>
</svg>
