<svg xmlns="http://www.w3.org/2000/svg" viewBox="0 0 809 809">
  <defs>
    <style>
      .cls-1 {
        fill: #5bc4ba;
      }

      .cls-2 {
        fill: #a9c9dd;
      }

      .cls-3 {
        fill: #c8daea;
      }

      .cls-4 {
        fill: #f5fafd;
      }
    </style>
  </defs>
  <title>Ресурс 6</title>
  <g id="Слой_2" data-name="Слой 2">
    <g id="Слой_1-2" data-name="Слой 1">
      <circle class="cls-1" cx="404.5" cy="404.5" r="404.5"/>
      <g>
        <path class="cls-2" d="M310.12123,576.96939c1.31392-.01388,2.62852-.0062,3.94161-.04692,1.7674-.05485,1.98582-.29153,2.05169-2.17386.03062-.87553.00463-1.75283.01823-2.62912a14.967,14.967,0,0,1,.42626-4.22228,13.10577,13.10577,0,0,0,.22148-3.25662c.08708-2.39392-.14949-4.78938.54231-7.16809a14.63419,14.63419,0,0,0,.12378-3.5972,25.161,25.161,0,0,1,.5075-6.18581,17.96557,17.96557,0,0,0,.15227-4.251,23.84715,23.84715,0,0,1,.48641-5.52962,21.01512,21.01512,0,0,0,.17412-4.57844,15.59234,15.59234,0,0,1,.50062-5.198,7.54031,7.54031,0,0,0,.14929-2.28089c.09267-2.72131-.17846-5.44576.572-8.152a16.29734,16.29734,0,0,0,.09722-3.928,23.47444,23.47444,0,0,1,.48444-5.52962,20.9999,20.9999,0,0,0,.1746-4.57848,27.05469,27.05469,0,0,1,.45821-5.202,29.97161,29.97161,0,0,0,.20434-5.5635c.0433-1.63247-.18961-3.29082.49828-4.86459a2.05918,2.05918,0,0,0,.12273-.97045c-.35346-3.95272.64508-7.82432.68729-11.75132.01018-.94764.12482-1.77351,1.30987-1.87934.67365-.38743,1.19833.00728,1.74007.323,15.46651,11.40864,30.97837,22.75886,46.35973,34.27676a6.84021,6.84021,0,0,1,.67123.47812,6.25391,6.25391,0,0,1,.58512.50678c.08792.08293.17464.17589.263.25882.16933.15931.3323.333.49253.50179.08257.07352.16241.157.24578.23069a4.9711,4.9711,0,0,0,.82652.531,2.32133,2.32133,0,0,1,.55333.34815,3.97206,3.97206,0,0,1,.49241.43322c.00491-.00527.2323.23126.23749.2255.166.14084.32538.289.48891.43153.00567-.00708.25991.196.2655.1884.19327.10253.3801.214.57035.32095a2.60044,2.60044,0,0,1,.55478.35209,6.03134,6.03134,0,0,1,.50863.41865c.0905.06442.175.135.26554.19814.29455.17725.60029.33085.90941.48863a4.33731,4.33731,0,0,1,.62544.40726c.32365.239.64166.47965.96538.71964,1.6062,1.65034,4.29166,2.085,5.14743,4.57522-5.8457,5.8581-12.2915,11.09023-17.92285,17.17113a10.51111,10.51111,0,0,1-2.66534,1.8486l.01509-.00744a4.80827,4.80827,0,0,1-.67936.67405l.01867-.01851a4.03531,4.03531,0,0,1-.68407.67506l.022-.02173a3.52538,3.52538,0,0,1-.68395.67964l.02338-.02306a3.17361,3.17361,0,0,1-.68733.67981l.02555-.02527a2.86125,2.86125,0,0,1-.68834.68266l.02716-.02684a2.59638,2.59638,0,0,1-.69119.68327l.02893-.02881a2.41237,2.41237,0,0,1-.69011.68677l.0295-.02946a2.32042,2.32042,0,0,1-.69043.68765l.03014-.02994a2.21565,2.21565,0,0,1-.69208.68709l.0305-.03054a2.12943,2.12943,0,0,1-.69071.689l.03074-.03066a2.04769,2.04769,0,0,1-.6926.68737l.03058-.03086a1.96225,1.96225,0,0,1-.69111.68918l.03094-.03094a1.90087,1.90087,0,0,1-.6922.68822l.03078-.03127a1.81183,1.81183,0,0,1-.69236.68789l.0305-.03082a1.88581,1.88581,0,0,1-.691.68882l.03444-.02861a1.44676,1.44676,0,0,1-.82543.66781c-1.15886.26276-1.78361,1.23125-2.55182,1.98413-5.71106,5.597-11.379,11.23823-17.10961,16.81509-1.80168,1.75327-3.69607,3.423-5.64885,5.00679a21.2025,21.2025,0,0,1-12.42055,4.57148c-2.07418.12462-4.15929.06748-6.23945.093Q310.81688,577.30817,310.12123,576.96939Z"/>
        <path class="cls-3" d="M271.98673,470.46827a62.3374,62.3374,0,0,0-2.24826-8.22538c-1.70042-5.78382-3.46645-11.54828-5.20557-17.3207.5008-1.80768,2.16078-2.41348,3.51721-3.26382,25.76754-16.15267,51.42988-32.47234,77.18026-48.652q44.48294-27.94985,88.8776-56.03953,32.20058-20.25828,64.32233-40.64336a29.455,29.455,0,0,1,9.925-4.263,10.10107,10.10107,0,0,1,2.27739-.32517c2.35626.06227,4.80507.22357,5.93721,2.68405,1.1725,2.54816-.44762,4.54722-2.14086,6.07911-4.7994,4.34224-9.52737,8.76509-14.37437,13.05251-8.38075,7.41319-16.58452,15.02174-24.94157,22.45924-10.24214,9.11516-20.3451,18.384-30.56692,27.52168-7.76818,6.94432-15.43878,14.00043-23.19083,20.96382-10.28118,9.23519-20.50272,18.53638-30.79592,27.75845q-11.15117,9.99083-22.24251,20.05038c-8.19653,7.45186-16.47056,14.81753-24.68335,22.25032-6.09925,5.52013-12.279,10.95462-18.245,16.62376a7.84819,7.84819,0,0,0-2.0203,3.68823c-1.34794,9.78522-1.51815,19.6521-2.24886,29.47518-.88495,11.897-1.589,23.8071-2.41666,35.70872-.53909,7.752-1.136,15.50373-1.49518,23.26419-.16229,3.506-.727,6.96746-.7761,10.48133-.04986,3.57141-.42887,3.83623-4.0602,3.80287a6.00181,6.00181,0,0,1-2.90718-.265,6.77077,6.77077,0,0,1-5.766-4.29121,29.93933,29.93933,0,0,1-1.39617-3.68662c-1.78337-5.76225-3.52292-11.538-5.29456-17.30392a7.60563,7.60563,0,0,0-.57693-1.15362,18.36959,18.36959,0,0,0-1.217-4.7635q-7.78383-25.661-15.61491-51.30757c-1.88413-6.18951-3.74891-12.38489-5.63716-18.57311-.19047-.62423-.48283-1.21736-.72789-1.82494-.34071-.44316-.30077-1.02325-.54054-1.5027a.45136.45136,0,0,0-.08-.46408c-.58323-.54935-.043-1.45574-.63625-2.00191Z"/>
        <g>
          <path class="cls-4" d="M594.38324,242.83646a23.60661,23.60661,0,0,0-2.84363-9.04309,17.27379,17.27379,0,0,0-12.68994-9.04028,23.95058,23.95058,0,0,0-12.62091,1.37854q-14.70438,5.77615-29.46259,11.41516a57.31649,57.31649,0,0,1-8.34241,2.98468l-.00079-.00342c-.51886.605-1.474.019-1.961.71118-.41113.28314-.97083.22333-1.34949.58154l-.01727.007c-.50232.63477-1.45477.0448-1.94458.7135-.38983.31329-.952.22388-1.3299.565-.89087.41785-1.76019.89154-2.67584,1.2453q-33.14822,12.80539-66.30872,25.57867c-2.038.78467-4.123,1.44672-6.18628,2.16571-.89032.41815-1.75885.89258-2.67413,1.24609q-31.60126,12.20471-63.21979,24.36505c-2.13843.82068-4.19043,1.92542-6.5025,2.25946l-.03888-.047c-.42175.29706-1.0177.19543-1.38934.60706l.007-.00421c-.52173.59863-1.473.02319-1.962.71118-.41119.283-.96948.22491-1.34985.57953l-.01886.00757c-.5.63861-1.45374.04608-1.9425.71509-.38928.313-.94952.225-1.32855.56207a.38065.38065,0,0,1-.44922.123c-.49744.23029-1.10211.19043-1.52618.60559l.00964-.00543c-.52209.595-1.47528.019-1.96088.71344-.415.277-.97528.21844-1.35223.58331l-.01086.00452c-.506.62769-1.45789.04132-1.94781.71283-.39349.31-.95819.22034-1.33563.56805a.3572.3572,0,0,1-.43506.11713c-.50433.22266-1.11243.18445-1.53558.611l.0155-.00842c-.37317.356-.9422.25055-1.3327.5658a.46939.46939,0,0,1-.49652.13538c-.47174.2608-1.07019.20514-1.48969.59637l-.00677.00269c-.5108.6192-1.462.03644-1.95215.71191-.3974.30475-.96326.21655-1.33929.57092a.33225.33225,0,0,1-.41992.11353c-.51227.21692-1.12982.17407-1.54657.62677a14.25719,14.25719,0,0,1-1.42865.74054q-32.74026,12.66513-65.491,25.30261a10.67307,10.67307,0,0,1-1.58759.35541l-.01477-.02789c-.39862.33789-.99786.20795-1.37726.59064-1.09631.48444-2.17474,1.015-3.29144,1.44653q-42.42068,16.3938-84.85193,32.76062a7.44835,7.44835,0,0,1-2.81134.84747,9.23049,9.23049,0,0,1-1.12616.62494q-7.66672,2.98434-15.34467,5.93994a80.25694,80.25694,0,0,0-11.62122,5.42328,33.38832,33.38832,0,0,0-7.75592,6.06207,15.56317,15.56317,0,0,0-2.65955,3.7464,9.055,9.055,0,0,0,1.00592,10.19147,17.22411,17.22411,0,0,0,4.122,3.7522,37.42586,37.42586,0,0,0,9.86774,4.43872q37.222,11.60175,74.43945,23.218,13.66187,4.26132,27.32611,8.516c1.26782-.86371,2.50708-1.77258,3.80743-2.5835,8.45337-5.27167,16.9328-10.50177,25.3783-15.78607,6.58942-4.123,13.1369-8.31287,19.7124-12.45819q11.52979-7.26883,23.0744-14.51428,12.50345-7.88031,24.99329-15.7821,12.6329-7.98331,25.26257-15.97131c5.83276-3.68066,11.68311-7.33344,17.51514-11.01526q9.99829-6.312,19.97687-12.6554c6.83606-4.34686,13.61816-8.78076,20.51013-13.0368,2.61115-1.61243,5.16-3.31348,7.75177-4.95111q11.24423-7.10468,22.51074-14.17426,10.1391-6.39752,20.26209-12.8208c1.48065-.93542,3.01575-1.78748,4.47021-2.76086a27.54227,27.54227,0,0,1,9.72479-3.82648,8.53541,8.53541,0,0,1,5.14526.67487,2.70022,2.70022,0,0,1,1.40289,3.5318,7.85227,7.85227,0,0,1-2.9068,3.89941,19.40026,19.40026,0,0,0-3.70886,3.2337c-3.051,3.15674-6.72681,5.6344-9.64978,8.92639a1.42363,1.42363,0,0,1-.24872.21539c-3.51276,2.46014-6.40405,5.63794-9.58472,8.472-3.51166,3.129-7.243,6.04425-10.39526,9.57166a2.69526,2.69526,0,0,1-.49005.43884c-3.46887,2.34326-6.12213,5.61017-9.3609,8.23419-3.48151,2.82068-6.62146,6.06281-9.91089,9.12054a4.50861,4.50861,0,0,1-.49152.43768c-3.72321,2.5556-6.5498,6.11456-10.06262,8.931-3.49475,2.80188-6.62378,6.05981-9.9137,9.11719a5.01854,5.01854,0,0,1-.49207.43732c-3.49713,2.47845-6.34314,5.69775-9.60406,8.45245-3.59424,3.03632-6.9248,6.3847-10.371,9.59637-.16052.14966-.32721.29285-.49243.4375-3.2901,2.8819-6.67725,5.66168-9.8443,8.6731-3.33575,3.17181-7.04687,5.93549-10.13287,9.3736a2.81234,2.81234,0,0,1-.493.43567c-3.53589,2.43469-6.34875,5.6947-9.56812,8.49274a103.51156,103.51156,0,0,0-9.70258,8.86359,5.41218,5.41218,0,0,1-.49115.43829c-3.28986,2.88208-6.616,5.724-9.85992,8.65686-3.41248,3.08527-6.74622,6.25769-10.11517,9.39124a4.50307,4.50307,0,0,1-.496.4328c-3.53955,2.43066-6.34741,5.69635-9.567,8.4942a102.21439,102.21439,0,0,0-9.70227,8.86383,1.91927,1.91927,0,0,1-.24176.22345c-4.29041,3.40936-8.14178,7.309-12.22656,10.94794-.81805.72882-1.58289,1.52838-2.45966,2.17712-.94635.70026-.30493,1.33984-.07916,2.01849q.66064.33838,1.32092.677l.00018-.00012a6.0568,6.0568,0,0,0,.85565.97638c4.125,3.06628,8.26831,6.10791,12.40179,9.16284q16.3591,12.09055,32.72375,24.17377a7.088,7.088,0,0,0,1.47644.642l.00031.00049-.00031-.00049.00043.00018-.00507-.01416a3.59368,3.59368,0,0,1,.68036.63812q.32986.31018.671.60736l.038.02527c.32056.4137.95709.27173,1.25995.71655l-.01965-.02093a4.16156,4.16156,0,0,1,.69006.64368l.00073.00073q.32282.31467.66846.60406l.04639.03094c.31433.41907.95026.27631,1.25226.71686l-.0188-.01971a4.8491,4.8491,0,0,1,.69019.63879l.00494.00342c.35114.38074.98773.24426,1.29065.7124l-.02-.02417a2.50548,2.50548,0,0,1,.68915.681,9.81726,9.81726,0,0,0,1.08893,1.118c1.58966,1.19574,3.209,2.35205,4.81726,3.52295q15.31238,11.35263,30.63055,22.69806a15.11441,15.11441,0,0,0,1.59534.934,6.014,6.014,0,0,0,1.44751,1.36444c.10773.08484.207.1756.31494.26141.20117.17664.40118.3493.61475.50751a5.72533,5.72533,0,0,0,.64014.44324,5.08427,5.08427,0,0,1,1.43683,1.28741c.08612.10327.16724.21667.252.31934a7.02961,7.02961,0,0,0,.55109.64716,12.04528,12.04528,0,0,0,1.4826,1.28619c13.45178,10.1311,27.06812,20.04028,40.61505,30.04279,2.6153,1.931,5.02448,4.22748,8.175,5.36218a1.557,1.557,0,0,0,.75323.62366l-.01685-.0564c3.28864,3.75836,7.43542,6.351,11.78149,8.67279a1.82087,1.82087,0,0,0,.75043.62292l-.01868-.05286c.65784,1.37909,1.95074,1.71106,3.27344,1.9939.30768.5097.91449.4151,1.35547.65558l.00507-.03448c1.26886,1.88031,3.46735,1.40417,5.21948,2.0592.72046.78986,1.864-.00177,2.61261.6825l-.01227-.00854c1.49475.90619,3.25018-.12146,4.76416.642a2.15935,2.15935,0,0,1,1.626-.00458c1.29059-.72626,2.85376.254,4.11481-.65729l-.02142-.00391a2.048,2.048,0,0,1,.51605-.38586c5.09607-1.67157,8.47394-5.25049,10.95795-9.8313a39.34823,39.34823,0,0,0,3.73389-10.13263c.918-4.053,1.72034-8.13251,2.64752-12.18341.63239-2.76276.90265-5.6131,1.95819-8.27563a21.61507,21.61507,0,0,1,.24115-2.27271c2.593-12.30664,5.16821-24.61719,7.84155-36.90643.55548-2.55371.81873-5.18933,1.83716-7.63544.65082-.7915-.05646-1.8894.60425-2.67871l-.01837.03564c.74005-.84247.09662-1.98816.63043-2.87579a.25929.25929,0,0,1,.05634-.40155c.70782-.83527.0412-1.96991.61731-2.83386a.35078.35078,0,0,1,.07245-.46924l.67145-5.22546c.76239-1-.22339-2.36676.69922-3.33319l-.02063.0401c.61426-.80176-.08691-1.90015.60522-2.68439a.409.409,0,0,0,.07751-.49835c.57312-.85522-.12854-1.98853.61224-2.80719q.07169-.31055.14343-.62109l-.00018-.00012a2.0429,2.0429,0,0,0,.33075-.5542q4.01276-18.77142,7.99377-37.54968a14.70136,14.70136,0,0,0,.1554-1.957c.56146-.86761-.1416-2.01172.62006-2.83551a.26935.26935,0,0,0,.05316-.40356c.52789-.88806-.16809-2.04511.63153-2.87341l-.01916.03845c.62189-.79834-.08325-1.89771.608-2.6803a.42209.42209,0,0,0,.07544-.50427c.57825-.85193-.12177-1.98285.61139-2.8009a.31773.31773,0,0,0,.07117-.433c.574-.872-.17859-2.02747.60986-2.85364l-.01062.02509c.74469-.98578-.19507-2.32532.67444-3.285l.00012.00763a3.36628,3.36628,0,0,0,.46381-.84583q4.71725-22.24951,9.41431-44.5033c.15674-.73969.43829-1.45288.6618-2.17841.643-.78931-.06818-1.88568.605-2.66815l-.01483.03119c.62042-.699.26013-1.55011.36041-2.33112a11.63134,11.63134,0,0,1,.512-2.757,3.16756,3.16756,0,0,0,.14349-.90228c.13763-.85645-.30731-1.79077.35083-2.57434a.36533.36533,0,0,0,.06525-.45856c.54785-.85773-.1358-1.98645.60394-2.80194l.011.00732a3.50212,3.50212,0,0,0,.45813-.85815c2.49536-11.79456,4.94659-23.59857,7.47845-35.38519.57318-2.66821.84222-5.41724,1.90314-7.9715a15.18816,15.18816,0,0,1,.16626-1.95862q4.75955-22.339,9.55078-44.67126a10.63959,10.63959,0,0,1,.89063-3.4856c.62909-.78748-.08356-1.8797.60291-2.65417l-.01038.02246c.71143-.82739.04663-1.95892.62238-2.81628a.39984.39984,0,0,1,.06329-.47437c.145-2.97815,1.04334-5.815,1.66266-8.70148A46.32065,46.32065,0,0,0,594.38324,242.83646Z"/>
          <polygon class="cls-4" points="372.809 509.507 372.808 509.506 372.805 509.503 372.809 509.507"/>
        </g>
      </g>
    </g>
  </g>
</svg>
